<svg width="150" height="151" viewBox="0 0 150 151" fill="none" xmlns="http://www.w3.org/2000/svg">
<g id="BG detail">
<g id="Group 16" opacity="0.2">
<ellipse id="Ellipse 11" cx="4.02116" cy="4.97235" rx="4.02116" ry="4.02118" fill="#BEC2D9"/>
<ellipse id="Ellipse 17" cx="4.02116" cy="17.7809" rx="4.02116" ry="4.02118" fill="#BEC2D9"/>
<ellipse id="Ellipse 23" cx="4.02116" cy="30.5886" rx="4.02116" ry="4.02118" fill="#BEC2D9"/>
<ellipse id="Ellipse 29" cx="4.02116" cy="43.3972" rx="4.02116" ry="4.02118" fill="#BEC2D9"/>
<ellipse id="Ellipse 35" cx="4.02116" cy="56.2048" rx="4.02116" ry="4.02118" fill="#BEC2D9"/>
<ellipse id="Ellipse 41" cx="4.02116" cy="69.0134" rx="4.02116" ry="4.02118" fill="#BEC2D9"/>
<ellipse id="Ellipse 12" cx="16.8298" cy="4.97235" rx="4.02116" ry="4.02118" fill="#BEC2D9"/>
<ellipse id="Ellipse 18" cx="16.8298" cy="17.7809" rx="4.02116" ry="4.02118" fill="#BEC2D9"/>
<ellipse id="Ellipse 24" cx="16.8298" cy="30.5886" rx="4.02116" ry="4.02118" fill="#BEC2D9"/>
<ellipse id="Ellipse 30" cx="16.8298" cy="43.3972" rx="4.02116" ry="4.02118" fill="#BEC2D9"/>
<ellipse id="Ellipse 36" cx="16.8298" cy="56.2048" rx="4.02116" ry="4.02118" fill="#BEC2D9"/>
<ellipse id="Ellipse 42" cx="16.8298" cy="69.0134" rx="4.02116" ry="4.02118" fill="#BEC2D9"/>
<ellipse id="Ellipse 13" cx="29.6364" cy="4.97235" rx="4.02116" ry="4.02118" fill="#BEC2D9"/>
<ellipse id="Ellipse 19" cx="29.6364" cy="17.7809" rx="4.02116" ry="4.02118" fill="#BEC2D9"/>
<ellipse id="Ellipse 25" cx="29.6364" cy="30.5886" rx="4.02116" ry="4.02118" fill="#BEC2D9"/>
<ellipse id="Ellipse 31" cx="29.6364" cy="43.3972" rx="4.02116" ry="4.02118" fill="#BEC2D9"/>
<ellipse id="Ellipse 37" cx="29.6364" cy="56.2048" rx="4.02116" ry="4.02118" fill="#BEC2D9"/>
<ellipse id="Ellipse 43" cx="29.6364" cy="69.0134" rx="4.02116" ry="4.02118" fill="#BEC2D9"/>
<ellipse id="Ellipse 14" cx="42.445" cy="4.97235" rx="4.02116" ry="4.02118" fill="#BEC2D9"/>
<ellipse id="Ellipse 20" cx="42.445" cy="17.7809" rx="4.02116" ry="4.02118" fill="#BEC2D9"/>
<ellipse id="Ellipse 26" cx="42.445" cy="30.5886" rx="4.02116" ry="4.02118" fill="#BEC2D9"/>
<ellipse id="Ellipse 32" cx="42.445" cy="43.3972" rx="4.02116" ry="4.02118" fill="#BEC2D9"/>
<ellipse id="Ellipse 38" cx="42.445" cy="56.2048" rx="4.02116" ry="4.02118" fill="#BEC2D9"/>
<ellipse id="Ellipse 44" cx="42.445" cy="69.0134" rx="4.02116" ry="4.02118" fill="#BEC2D9"/>
<ellipse id="Ellipse 15" cx="55.2536" cy="4.97235" rx="4.02116" ry="4.02118" fill="#BEC2D9"/>
<ellipse id="Ellipse 21" cx="55.2536" cy="17.7809" rx="4.02116" ry="4.02118" fill="#BEC2D9"/>
<ellipse id="Ellipse 27" cx="55.2536" cy="30.5886" rx="4.02116" ry="4.02118" fill="#BEC2D9"/>
<ellipse id="Ellipse 33" cx="55.2536" cy="43.3972" rx="4.02116" ry="4.02118" fill="#BEC2D9"/>
<ellipse id="Ellipse 39" cx="55.2536" cy="56.2048" rx="4.02116" ry="4.02118" fill="#BEC2D9"/>
<ellipse id="Ellipse 45" cx="55.2536" cy="69.0134" rx="4.02116" ry="4.02118" fill="#BEC2D9"/>
<ellipse id="Ellipse 16" cx="68.0641" cy="4.97235" rx="4.02116" ry="4.02118" fill="#BEC2D9"/>
<ellipse id="Ellipse 22" cx="68.0641" cy="17.7809" rx="4.02116" ry="4.02118" fill="#BEC2D9"/>
<ellipse id="Ellipse 28" cx="68.0641" cy="30.5886" rx="4.02116" ry="4.02118" fill="#BEC2D9"/>
<ellipse id="Ellipse 34" cx="68.0641" cy="43.3972" rx="4.02116" ry="4.02118" fill="#BEC2D9"/>
<ellipse id="Ellipse 40" cx="68.0641" cy="56.2048" rx="4.02116" ry="4.02118" fill="#BEC2D9"/>
<ellipse id="Ellipse 46" cx="68.0641" cy="69.0134" rx="4.02116" ry="4.02118" fill="#BEC2D9"/>
</g>
<g id="Group 18" opacity="0.2">
<ellipse id="Ellipse 11_2" cx="4.02116" cy="82.1012" rx="4.02116" ry="4.02118" fill="#BEC2D9"/>
<ellipse id="Ellipse 17_2" cx="4.02116" cy="94.9098" rx="4.02116" ry="4.02118" fill="#BEC2D9"/>
<ellipse id="Ellipse 23_2" cx="4.02116" cy="107.717" rx="4.02116" ry="4.02118" fill="#BEC2D9"/>
<ellipse id="Ellipse 29_2" cx="4.02116" cy="120.526" rx="4.02116" ry="4.02118" fill="#BEC2D9"/>
<ellipse id="Ellipse 35_2" cx="4.02116" cy="133.334" rx="4.02116" ry="4.02118" fill="#BEC2D9"/>
<ellipse id="Ellipse 41_2" cx="4.02116" cy="146.142" rx="4.02116" ry="4.02118" fill="#BEC2D9"/>
<ellipse id="Ellipse 12_2" cx="16.8298" cy="82.1012" rx="4.02116" ry="4.02118" fill="#BEC2D9"/>
<ellipse id="Ellipse 18_2" cx="16.8298" cy="94.9098" rx="4.02116" ry="4.02118" fill="#BEC2D9"/>
<ellipse id="Ellipse 24_2" cx="16.8298" cy="107.717" rx="4.02116" ry="4.02118" fill="#BEC2D9"/>
<ellipse id="Ellipse 30_2" cx="16.8298" cy="120.526" rx="4.02116" ry="4.02118" fill="#BEC2D9"/>
<ellipse id="Ellipse 36_2" cx="16.8298" cy="133.334" rx="4.02116" ry="4.02118" fill="#BEC2D9"/>
<ellipse id="Ellipse 42_2" cx="16.8298" cy="146.142" rx="4.02116" ry="4.02118" fill="#BEC2D9"/>
<ellipse id="Ellipse 13_2" cx="29.6364" cy="82.1012" rx="4.02116" ry="4.02118" fill="#BEC2D9"/>
<ellipse id="Ellipse 19_2" cx="29.6364" cy="94.9098" rx="4.02116" ry="4.02118" fill="#BEC2D9"/>
<ellipse id="Ellipse 25_2" cx="29.6364" cy="107.717" rx="4.02116" ry="4.02118" fill="#BEC2D9"/>
<ellipse id="Ellipse 31_2" cx="29.6364" cy="120.526" rx="4.02116" ry="4.02118" fill="#BEC2D9"/>
<ellipse id="Ellipse 37_2" cx="29.6364" cy="133.334" rx="4.02116" ry="4.02118" fill="#BEC2D9"/>
<ellipse id="Ellipse 43_2" cx="29.6364" cy="146.142" rx="4.02116" ry="4.02118" fill="#BEC2D9"/>
<ellipse id="Ellipse 14_2" cx="42.445" cy="82.1012" rx="4.02116" ry="4.02118" fill="#BEC2D9"/>
<ellipse id="Ellipse 20_2" cx="42.445" cy="94.9098" rx="4.02116" ry="4.02118" fill="#BEC2D9"/>
<ellipse id="Ellipse 26_2" cx="42.445" cy="107.717" rx="4.02116" ry="4.02118" fill="#BEC2D9"/>
<ellipse id="Ellipse 32_2" cx="42.445" cy="120.526" rx="4.02116" ry="4.02118" fill="#BEC2D9"/>
<ellipse id="Ellipse 38_2" cx="42.445" cy="133.334" rx="4.02116" ry="4.02118" fill="#BEC2D9"/>
<ellipse id="Ellipse 44_2" cx="42.445" cy="146.142" rx="4.02116" ry="4.02118" fill="#BEC2D9"/>
<ellipse id="Ellipse 15_2" cx="55.2536" cy="82.1012" rx="4.02116" ry="4.02118" fill="#BEC2D9"/>
<ellipse id="Ellipse 21_2" cx="55.2536" cy="94.9098" rx="4.02116" ry="4.02118" fill="#BEC2D9"/>
<ellipse id="Ellipse 27_2" cx="55.2536" cy="107.717" rx="4.02116" ry="4.02118" fill="#BEC2D9"/>
<ellipse id="Ellipse 33_2" cx="55.2536" cy="120.526" rx="4.02116" ry="4.02118" fill="#BEC2D9"/>
<ellipse id="Ellipse 39_2" cx="55.2536" cy="133.334" rx="4.02116" ry="4.02118" fill="#BEC2D9"/>
<ellipse id="Ellipse 45_2" cx="55.2536" cy="146.142" rx="4.02116" ry="4.02118" fill="#BEC2D9"/>
<ellipse id="Ellipse 16_2" cx="68.0641" cy="82.1012" rx="4.02116" ry="4.02118" fill="#BEC2D9"/>
<ellipse id="Ellipse 22_2" cx="68.0641" cy="94.9098" rx="4.02116" ry="4.02118" fill="#BEC2D9"/>
<ellipse id="Ellipse 28_2" cx="68.0641" cy="107.717" rx="4.02116" ry="4.02118" fill="#BEC2D9"/>
<ellipse id="Ellipse 34_2" cx="68.0641" cy="120.526" rx="4.02116" ry="4.02118" fill="#BEC2D9"/>
<ellipse id="Ellipse 40_2" cx="68.0641" cy="133.334" rx="4.02116" ry="4.02118" fill="#BEC2D9"/>
<ellipse id="Ellipse 46_2" cx="68.0641" cy="146.142" rx="4.02116" ry="4.02118" fill="#BEC2D9"/>
</g>
<g id="Group 17" opacity="0.2">
<ellipse id="Ellipse 11_3" cx="81.1501" cy="4.97235" rx="4.02116" ry="4.02118" fill="#BEC2D9"/>
<ellipse id="Ellipse 17_3" cx="81.1501" cy="17.7809" rx="4.02116" ry="4.02118" fill="#BEC2D9"/>
<ellipse id="Ellipse 23_3" cx="81.1501" cy="30.5886" rx="4.02116" ry="4.02118" fill="#BEC2D9"/>
<ellipse id="Ellipse 29_3" cx="81.1501" cy="43.3972" rx="4.02116" ry="4.02118" fill="#BEC2D9"/>
<ellipse id="Ellipse 35_3" cx="81.1501" cy="56.2048" rx="4.02116" ry="4.02118" fill="#BEC2D9"/>
<ellipse id="Ellipse 41_3" cx="81.1501" cy="69.0134" rx="4.02116" ry="4.02118" fill="#BEC2D9"/>
<ellipse id="Ellipse 12_3" cx="93.9587" cy="4.97235" rx="4.02116" ry="4.02118" fill="#BEC2D9"/>
<ellipse id="Ellipse 18_3" cx="93.9587" cy="17.7809" rx="4.02116" ry="4.02118" fill="#BEC2D9"/>
<ellipse id="Ellipse 24_3" cx="93.9587" cy="30.5886" rx="4.02116" ry="4.02118" fill="#BEC2D9"/>
<ellipse id="Ellipse 30_3" cx="93.9587" cy="43.3972" rx="4.02116" ry="4.02118" fill="#BEC2D9"/>
<ellipse id="Ellipse 36_3" cx="93.9587" cy="56.2048" rx="4.02116" ry="4.02118" fill="#BEC2D9"/>
<ellipse id="Ellipse 42_3" cx="93.9587" cy="69.0134" rx="4.02116" ry="4.02118" fill="#BEC2D9"/>
<ellipse id="Ellipse 13_3" cx="106.765" cy="4.97235" rx="4.02116" ry="4.02118" fill="#BEC2D9"/>
<ellipse id="Ellipse 19_3" cx="106.765" cy="17.7809" rx="4.02116" ry="4.02118" fill="#BEC2D9"/>
<ellipse id="Ellipse 25_3" cx="106.765" cy="30.5886" rx="4.02116" ry="4.02118" fill="#BEC2D9"/>
<ellipse id="Ellipse 31_3" cx="106.765" cy="43.3972" rx="4.02116" ry="4.02118" fill="#BEC2D9"/>
<ellipse id="Ellipse 37_3" cx="106.765" cy="56.2048" rx="4.02116" ry="4.02118" fill="#BEC2D9"/>
<ellipse id="Ellipse 43_3" cx="106.765" cy="69.0134" rx="4.02116" ry="4.02118" fill="#BEC2D9"/>
<ellipse id="Ellipse 14_3" cx="119.574" cy="4.97235" rx="4.02116" ry="4.02118" fill="#BEC2D9"/>
<ellipse id="Ellipse 20_3" cx="119.574" cy="17.7809" rx="4.02116" ry="4.02118" fill="#BEC2D9"/>
<ellipse id="Ellipse 26_3" cx="119.574" cy="30.5886" rx="4.02116" ry="4.02118" fill="#BEC2D9"/>
<ellipse id="Ellipse 32_3" cx="119.574" cy="43.3972" rx="4.02116" ry="4.02118" fill="#BEC2D9"/>
<ellipse id="Ellipse 38_3" cx="119.574" cy="56.2048" rx="4.02116" ry="4.02118" fill="#BEC2D9"/>
<ellipse id="Ellipse 44_3" cx="119.574" cy="69.0134" rx="4.02116" ry="4.02118" fill="#BEC2D9"/>
<ellipse id="Ellipse 15_3" cx="132.382" cy="4.97235" rx="4.02116" ry="4.02118" fill="#BEC2D9"/>
<ellipse id="Ellipse 21_3" cx="132.382" cy="17.7809" rx="4.02116" ry="4.02118" fill="#BEC2D9"/>
<ellipse id="Ellipse 27_3" cx="132.382" cy="30.5886" rx="4.02116" ry="4.02118" fill="#BEC2D9"/>
<ellipse id="Ellipse 33_3" cx="132.382" cy="43.3972" rx="4.02116" ry="4.02118" fill="#BEC2D9"/>
<ellipse id="Ellipse 39_3" cx="132.382" cy="56.2048" rx="4.02116" ry="4.02118" fill="#BEC2D9"/>
<ellipse id="Ellipse 45_3" cx="132.382" cy="69.0134" rx="4.02116" ry="4.02118" fill="#BEC2D9"/>
<ellipse id="Ellipse 16_3" cx="145.193" cy="4.97235" rx="4.02116" ry="4.02118" fill="#BEC2D9"/>
<ellipse id="Ellipse 22_3" cx="145.193" cy="17.7809" rx="4.02116" ry="4.02118" fill="#BEC2D9"/>
<ellipse id="Ellipse 28_3" cx="145.193" cy="30.5886" rx="4.02116" ry="4.02118" fill="#BEC2D9"/>
<ellipse id="Ellipse 34_3" cx="145.193" cy="43.3972" rx="4.02116" ry="4.02118" fill="#BEC2D9"/>
<ellipse id="Ellipse 40_3" cx="145.193" cy="56.2048" rx="4.02116" ry="4.02118" fill="#BEC2D9"/>
<ellipse id="Ellipse 46_3" cx="145.193" cy="69.0134" rx="4.02116" ry="4.02118" fill="#BEC2D9"/>
</g>
<g id="Group 19" opacity="0.2">
<ellipse id="Ellipse 11_4" cx="81.1501" cy="82.1013" rx="4.02116" ry="4.02118" fill="#BEC2D9"/>
<ellipse id="Ellipse 17_4" cx="81.1501" cy="94.9099" rx="4.02116" ry="4.02118" fill="#BEC2D9"/>
<ellipse id="Ellipse 23_4" cx="81.1501" cy="107.717" rx="4.02116" ry="4.02118" fill="#BEC2D9"/>
<ellipse id="Ellipse 29_4" cx="81.1501" cy="120.526" rx="4.02116" ry="4.02118" fill="#BEC2D9"/>
<ellipse id="Ellipse 35_4" cx="81.1501" cy="133.334" rx="4.02116" ry="4.02118" fill="#BEC2D9"/>
<ellipse id="Ellipse 41_4" cx="81.1501" cy="146.142" rx="4.02116" ry="4.02118" fill="#BEC2D9"/>
<ellipse id="Ellipse 12_4" cx="93.9587" cy="82.1013" rx="4.02116" ry="4.02118" fill="#BEC2D9"/>
<ellipse id="Ellipse 18_4" cx="93.9587" cy="94.9099" rx="4.02116" ry="4.02118" fill="#BEC2D9"/>
<ellipse id="Ellipse 24_4" cx="93.9587" cy="107.717" rx="4.02116" ry="4.02118" fill="#BEC2D9"/>
<ellipse id="Ellipse 30_4" cx="93.9587" cy="120.526" rx="4.02116" ry="4.02118" fill="#BEC2D9"/>
<ellipse id="Ellipse 36_4" cx="93.9587" cy="133.334" rx="4.02116" ry="4.02118" fill="#BEC2D9"/>
<ellipse id="Ellipse 42_4" cx="93.9587" cy="146.142" rx="4.02116" ry="4.02118" fill="#BEC2D9"/>
<ellipse id="Ellipse 13_4" cx="106.765" cy="82.1013" rx="4.02116" ry="4.02118" fill="#BEC2D9"/>
<ellipse id="Ellipse 19_4" cx="106.765" cy="94.9099" rx="4.02116" ry="4.02118" fill="#BEC2D9"/>
<ellipse id="Ellipse 25_4" cx="106.765" cy="107.717" rx="4.02116" ry="4.02118" fill="#BEC2D9"/>
<ellipse id="Ellipse 31_4" cx="106.765" cy="120.526" rx="4.02116" ry="4.02118" fill="#BEC2D9"/>
<ellipse id="Ellipse 37_4" cx="106.765" cy="133.334" rx="4.02116" ry="4.02118" fill="#BEC2D9"/>
<ellipse id="Ellipse 43_4" cx="106.765" cy="146.142" rx="4.02116" ry="4.02118" fill="#BEC2D9"/>
<ellipse id="Ellipse 14_4" cx="119.574" cy="82.1013" rx="4.02116" ry="4.02118" fill="#BEC2D9"/>
<ellipse id="Ellipse 20_4" cx="119.574" cy="94.9099" rx="4.02116" ry="4.02118" fill="#BEC2D9"/>
<ellipse id="Ellipse 26_4" cx="119.574" cy="107.717" rx="4.02116" ry="4.02118" fill="#BEC2D9"/>
<ellipse id="Ellipse 32_4" cx="119.574" cy="120.526" rx="4.02116" ry="4.02118" fill="#BEC2D9"/>
<ellipse id="Ellipse 38_4" cx="119.574" cy="133.334" rx="4.02116" ry="4.02118" fill="#BEC2D9"/>
<ellipse id="Ellipse 44_4" cx="119.574" cy="146.142" rx="4.02116" ry="4.02118" fill="#BEC2D9"/>
<ellipse id="Ellipse 15_4" cx="132.382" cy="82.1013" rx="4.02116" ry="4.02118" fill="#BEC2D9"/>
<ellipse id="Ellipse 21_4" cx="132.382" cy="94.9099" rx="4.02116" ry="4.02118" fill="#BEC2D9"/>
<ellipse id="Ellipse 27_4" cx="132.382" cy="107.717" rx="4.02116" ry="4.02118" fill="#BEC2D9"/>
<ellipse id="Ellipse 33_4" cx="132.382" cy="120.526" rx="4.02116" ry="4.02118" fill="#BEC2D9"/>
<ellipse id="Ellipse 39_4" cx="132.382" cy="133.334" rx="4.02116" ry="4.02118" fill="#BEC2D9"/>
<ellipse id="Ellipse 45_4" cx="132.382" cy="146.142" rx="4.02116" ry="4.02118" fill="#BEC2D9"/>
<ellipse id="Ellipse 16_4" cx="145.193" cy="82.1013" rx="4.02116" ry="4.02118" fill="#BEC2D9"/>
<ellipse id="Ellipse 22_4" cx="145.193" cy="94.9099" rx="4.02116" ry="4.02118" fill="#BEC2D9"/>
<ellipse id="Ellipse 28_4" cx="145.193" cy="107.717" rx="4.02116" ry="4.02118" fill="#BEC2D9"/>
<ellipse id="Ellipse 34_4" cx="145.193" cy="120.526" rx="4.02116" ry="4.02118" fill="#BEC2D9"/>
<ellipse id="Ellipse 40_4" cx="145.193" cy="133.334" rx="4.02116" ry="4.02118" fill="#BEC2D9"/>
<ellipse id="Ellipse 46_4" cx="145.193" cy="146.142" rx="4.02116" ry="4.02118" fill="#BEC2D9"/>
</g>
</g>
</svg>
