<svg width="1561" height="520" viewBox="0 0 1561 520" fill="none" xmlns="http://www.w3.org/2000/svg">
<path d="M264.34 356.839C262.011 360.242 234.75 391.194 232 394.5C234.537 391.142 264.34 356.839 264.34 356.839Z" fill="#1F3D3E"/>
<path d="M264.34 356.839C289.5 320.084 291.029 278.95 288.279 261.738C260.334 277.534 223.676 331.72 208.84 356.839L194.755 359.66L184.614 373.361L173.5 347.973L157.571 373.361L131.5 347.973L113.062 378.599L100.668 373.361L88.8362 384.644L76.5 343.541L27 384.644L-17.6459 173.488L-54.8301 59.0445L-76.8026 53L-83 433H1751.99L1761 393.106L1751.99 267.783L1704.1 250.858L1671.42 288.737C1685.39 261.335 1686.63 223.859 1685.5 208.546C1633.22 231.435 1578.83 327.959 1558.18 373.361L1551.98 366.913C1565.95 325.971 1557.8 287.528 1551.98 273.424C1519.98 297.28 1509.35 349.988 1508.03 373.361L1491.7 359.66V366.913L1482.12 362.48L1473.1 352.406L1457.89 384.644L1444.93 362.48L1431.98 380.211L1411.13 373.361L1386.34 380.211H1372.26L1359.86 356.839L1349.16 373.361L1329.44 352.406V359.66V373.361H1319.86L1296.76 362.48V384.644H1280.42L1268.59 373.361V384.644H1155.5L1140.14 373.361L1120.42 384.644L1101.82 380.211L1089.99 362.48L1073.66 384.644L1048.3 373.361L1039.85 380.211L1020.5 366.913L1004.92 380.211L967.736 352.406V373.361L952.525 347.973L942.947 359.66L926.608 352.406L905.763 373.361L886.044 356.839L874.212 366.913L864.635 380.211H855.62L849.423 373.361L840.408 380.211L828.577 356.839L809.985 380.211L801 366.913L791.393 380.211L749.138 352.406V373.361L692.235 343.541L684.911 384.644H661.811L649.98 359.66L609.415 373.361L598.711 347.973L576.738 366.913L555.893 337.496L534.5 359.66L529.413 334.676L513.638 347.973L507.441 337.496L468.003 366.913L453.918 352.406L433.635 373.361H425.185L412.79 356.839L398.141 373.361L382.93 343.541L364.901 359.66L359.83 352.406L344.619 366.913L319.266 362.48L284 394.5M264.34 356.839C262.011 360.242 234.75 391.194 232 394.5C234.537 391.142 264.34 356.839 264.34 356.839Z" stroke="#0C1011" stroke-width="81"/>
</svg>
