<svg width="110" height="113" viewBox="0 0 110 113" fill="none" xmlns="http://www.w3.org/2000/svg">
<g clip-path="url(#clip0_14_400)">
<g filter="url(#filter0_bd_14_400)">
<mask id="path-1-inside-1_14_400" fill="white">
<path fill-rule="evenodd" clip-rule="evenodd" d="M56.2769 106C83.3388 106 105.277 84.062 105.277 57C105.277 29.938 83.3388 8 56.2769 8C29.2149 8 7.27686 29.938 7.27686 57C7.27686 84.062 29.2149 106 56.2769 106ZM79.8037 58.9164C81.137 58.1466 81.137 56.2221 79.8037 55.4523L46.2906 36.1035C44.9572 35.3337 43.2906 36.296 43.2906 37.8356L43.2906 76.5332C43.2906 78.0728 44.9572 79.0351 46.2906 78.2653L79.8037 58.9164Z"/>
</mask>
<path fill-rule="evenodd" clip-rule="evenodd" d="M56.2769 106C83.3388 106 105.277 84.062 105.277 57C105.277 29.938 83.3388 8 56.2769 8C29.2149 8 7.27686 29.938 7.27686 57C7.27686 84.062 29.2149 106 56.2769 106ZM79.8037 58.9164C81.137 58.1466 81.137 56.2221 79.8037 55.4523L46.2906 36.1035C44.9572 35.3337 43.2906 36.296 43.2906 37.8356L43.2906 76.5332C43.2906 78.0728 44.9572 79.0351 46.2906 78.2653L79.8037 58.9164Z" fill="white" fill-opacity="0.3" shape-rendering="crispEdges"/>
<path d="M79.8037 55.4523L80.3037 54.5863L79.8037 55.4523ZM79.8037 58.9164L79.3037 58.0504V58.0504L79.8037 58.9164ZM46.2906 36.1035L45.7906 36.9695V36.9695L46.2906 36.1035ZM43.2906 37.8356H44.2906H43.2906ZM43.2906 76.5332H42.2906H43.2906ZM46.2906 78.2653L46.7906 79.1313L46.2906 78.2653ZM104.277 57C104.277 83.5097 82.7865 105 56.2769 105V107C83.8911 107 106.277 84.6142 106.277 57H104.277ZM56.2769 9C82.7865 9 104.277 30.4903 104.277 57H106.277C106.277 29.3858 83.8911 7 56.2769 7V9ZM8.27686 57C8.27686 30.4903 29.7672 9 56.2769 9V7C28.6626 7 6.27686 29.3858 6.27686 57H8.27686ZM56.2769 105C29.7672 105 8.27686 83.5097 8.27686 57H6.27686C6.27686 84.6142 28.6626 107 56.2769 107V105ZM79.3037 56.3184C79.9704 56.7033 79.9704 57.6655 79.3037 58.0504L80.3037 59.7825C82.3037 58.6278 82.3037 55.741 80.3037 54.5863L79.3037 56.3184ZM45.7906 36.9695L79.3037 56.3184L80.3037 54.5863L46.7906 35.2375L45.7906 36.9695ZM44.2906 37.8356C44.2906 37.0658 45.1239 36.5846 45.7906 36.9695L46.7906 35.2375C44.7906 34.0828 42.2906 35.5262 42.2906 37.8356H44.2906ZM44.2906 76.5332L44.2906 37.8356H42.2906L42.2906 76.5332H44.2906ZM45.7906 77.3992C45.1239 77.7841 44.2906 77.303 44.2906 76.5332H42.2906C42.2906 78.8426 44.7906 80.286 46.7906 79.1313L45.7906 77.3992ZM79.3037 58.0504L45.7906 77.3992L46.7906 79.1313L80.3037 59.7825L79.3037 58.0504Z" fill="#989898" fill-opacity="0.47" mask="url(#path-1-inside-1_14_400)"/>
</g>
</g>
<defs>
<filter id="filter0_bd_14_400" x="-4.72314" y="-4" width="122" height="122" filterUnits="userSpaceOnUse" color-interpolation-filters="sRGB">
<feFlood flood-opacity="0" result="BackgroundImageFix"/>
<feGaussianBlur in="BackgroundImageFix" stdDeviation="6"/>
<feComposite in2="SourceAlpha" operator="in" result="effect1_backgroundBlur_14_400"/>
<feColorMatrix in="SourceAlpha" type="matrix" values="0 0 0 0 0 0 0 0 0 0 0 0 0 0 0 0 0 0 127 0" result="hardAlpha"/>
<feOffset dy="4"/>
<feGaussianBlur stdDeviation="2"/>
<feComposite in2="hardAlpha" operator="out"/>
<feColorMatrix type="matrix" values="0 0 0 0 0 0 0 0 0 0 0 0 0 0 0 0 0 0 0.25 0"/>
<feBlend mode="normal" in2="effect1_backgroundBlur_14_400" result="effect2_dropShadow_14_400"/>
<feBlend mode="normal" in="SourceGraphic" in2="effect2_dropShadow_14_400" result="shape"/>
</filter>
<clipPath id="clip0_14_400">
<rect width="110" height="113" fill="white"/>
</clipPath>
</defs>
</svg>
